<svg width="40" height="40" viewBox="0 0 40 40" fill="none" xmlns="http://www.w3.org/2000/svg">
<g id="fi-rr-eye" clip-path="url(#clip0_1_1035)">
<path id="Vector" d="M38.7848 15.6981C36.1998 11.4881 30.3198 4.42474 19.9998 4.42474C9.67981 4.42474 3.79981 11.4881 1.21481 15.6981C0.415691 16.9906 -0.00759888 18.4801 -0.00759888 19.9997C-0.00759888 21.5193 0.415691 23.0089 1.21481 24.3014C3.79981 28.5114 9.67981 35.5747 19.9998 35.5747C30.3198 35.5747 36.1998 28.5114 38.7848 24.3014C39.5839 23.0089 40.0072 21.5193 40.0072 19.9997C40.0072 18.4801 39.5839 16.9906 38.7848 15.6981ZM35.9431 22.5564C33.7231 26.1664 28.6981 32.2414 19.9998 32.2414C11.3015 32.2414 6.27648 26.1664 4.05648 22.5564C3.5817 21.7882 3.33023 20.9029 3.33023 19.9997C3.33023 19.0966 3.5817 18.2113 4.05648 17.4431C6.27648 13.8331 11.3015 7.75808 19.9998 7.75808C28.6981 7.75808 33.7231 13.8264 35.9431 17.4431C36.4179 18.2113 36.6694 19.0966 36.6694 19.9997C36.6694 20.9029 36.4179 21.7882 35.9431 22.5564Z" fill="#05B4BA"/>
<path id="Vector_2" d="M19.9997 11.6664C18.3515 11.6664 16.7403 12.1551 15.3699 13.0708C13.9995 13.9865 12.9314 15.288 12.3007 16.8107C11.6699 18.3334 11.5049 20.009 11.8264 21.6255C12.148 23.242 12.9417 24.7268 14.1071 25.8923C15.2725 27.0577 16.7574 27.8514 18.3739 28.1729C19.9904 28.4945 21.666 28.3294 23.1887 27.6987C24.7114 27.068 26.0129 25.9999 26.9286 24.6295C27.8442 23.2591 28.333 21.6479 28.333 19.9997C28.3303 17.7904 27.4515 15.6723 25.8893 14.1101C24.3271 12.5479 22.209 11.669 19.9997 11.6664ZM19.9997 24.9997C19.0108 24.9997 18.0441 24.7065 17.2218 24.1571C16.3996 23.6077 15.7587 22.8268 15.3803 21.9131C15.0018 20.9995 14.9028 19.9942 15.0957 19.0243C15.2887 18.0544 15.7649 17.1634 16.4641 16.4642C17.1634 15.7649 18.0543 15.2887 19.0242 15.0958C19.9941 14.9029 20.9994 15.0019 21.9131 15.3803C22.8267 15.7588 23.6076 16.3996 24.157 17.2219C24.7064 18.0441 24.9997 19.0108 24.9997 19.9997C24.9997 21.3258 24.4729 22.5976 23.5352 23.5353C22.5975 24.4729 21.3257 24.9997 19.9997 24.9997Z" fill="#05B4BA"/>
</g>
<defs>
<clipPath id="clip0_1_1035">
<rect width="40" height="40" fill="white"/>
</clipPath>
</defs>
</svg>
