<svg width="40" height="40" viewBox="0 0 40 40" fill="none" xmlns="http://www.w3.org/2000/svg">
<g id="fi-rr-dart" clip-path="url(#clip0_1_1202)">
<path id="Vector" d="M33.3333 0.000206259H30.405C29.529 -0.00210967 28.6612 0.169338 27.8519 0.504626C27.0425 0.839915 26.3077 1.33239 25.69 1.95354L20.2867 7.35687C19.0397 8.60909 18.3377 10.303 18.3333 12.0702V17.8419C12.89 21.8669 5.69834 27.2302 4.79834 28.1319C4.07317 28.8619 3.5915 29.7983 3.41933 30.8128C3.24717 31.8273 3.39294 32.8701 3.83668 33.7985L0.488344 37.1552C0.175892 37.4678 0.000366211 37.8916 0.000366211 38.3335C0.000366211 38.7755 0.175892 39.1993 0.488344 39.5119C0.80089 39.8243 1.22474 39.9998 1.66668 39.9998C2.10862 39.9998 2.53246 39.8243 2.84501 39.5119L6.19001 36.1669C7.11859 36.6198 8.16576 36.7703 9.1843 36.5972C10.2028 36.4241 11.1415 35.9361 11.8683 35.2019C12.77 34.3002 18.1333 27.1102 22.1667 21.6669H27.9367C28.8127 21.6692 29.6805 21.4977 30.4898 21.1625C31.2991 20.8272 32.0339 20.3347 32.6517 19.7135L38.055 14.3102C39.2989 13.0566 39.9978 11.3629 40 9.59687V6.66687C40 4.89876 39.2976 3.20307 38.0474 1.95283C36.7971 0.702585 35.1015 0.000206259 33.3333 0.000206259ZM9.51168 32.8452C9.19479 33.1494 8.77257 33.3192 8.33334 33.3192C7.89411 33.3192 7.4719 33.1494 7.15501 32.8452C6.84256 32.5327 6.66703 32.1088 6.66703 31.6669C6.66703 31.2249 6.84256 30.8011 7.15501 30.4885C7.72001 29.9285 12.155 26.5835 17.0683 22.9319C13.415 27.8435 10.07 32.2819 9.51168 32.8452ZM36.6667 9.59687C36.6645 10.4805 36.3135 11.3274 35.69 11.9535L30.2867 17.3569C29.9776 17.6674 29.61 17.9135 29.2052 18.0812C28.8004 18.2488 28.3665 18.3346 27.9283 18.3335H24.6183L26.27 16.0869L32.845 9.51187C33.0042 9.35813 33.1312 9.17422 33.2185 8.97088C33.3059 8.76754 33.3518 8.54884 33.3538 8.32754C33.3557 8.10624 33.3135 7.88678 33.2297 7.68195C33.1459 7.47712 33.0222 7.29104 32.8657 7.13455C32.7092 6.97806 32.5231 6.8543 32.3183 6.7705C32.1134 6.6867 31.894 6.64453 31.6727 6.64646C31.4514 6.64838 31.2327 6.69436 31.0293 6.7817C30.826 6.86905 30.6421 6.99602 30.4883 7.15521L23.915 13.7285L21.6667 15.3819V12.0702C21.6689 11.1866 22.0199 10.3396 22.6433 9.71354L28.0467 4.31021C28.3558 3.99972 28.7233 3.75354 29.1281 3.58591C29.5329 3.41828 29.9669 3.3325 30.405 3.33354H33.3333C34.2174 3.33354 35.0652 3.68473 35.6904 4.30985C36.3155 4.93497 36.6667 5.78282 36.6667 6.66687V9.59687Z" fill="#05B4BA"/>
</g>
<defs>
<clipPath id="clip0_1_1202">
<rect width="40" height="40" fill="white"/>
</clipPath>
</defs>
</svg>
