<svg width="40" height="40" viewBox="0 0 40 40" fill="none" xmlns="http://www.w3.org/2000/svg">
<g id="fi-rr-browser" clip-path="url(#clip0_1_1254)">
<path id="Vector" d="M31.6667 1.66675H8.33333C6.12401 1.66939 4.00593 2.54822 2.4437 4.11045C0.88147 5.67268 0.00264643 7.79076 0 10.0001L0 30.0001C0.00264643 32.2094 0.88147 34.3275 2.4437 35.8897C4.00593 37.4519 6.12401 38.3308 8.33333 38.3334H31.6667C33.876 38.3308 35.9941 37.4519 37.5563 35.8897C39.1185 34.3275 39.9974 32.2094 40 30.0001V10.0001C39.9974 7.79076 39.1185 5.67268 37.5563 4.11045C35.9941 2.54822 33.876 1.66939 31.6667 1.66675ZM8.33333 5.00008H31.6667C32.9927 5.00008 34.2645 5.52687 35.2022 6.46455C36.1399 7.40223 36.6667 8.674 36.6667 10.0001V11.6667H3.33333V10.0001C3.33333 8.674 3.86012 7.40223 4.7978 6.46455C5.73548 5.52687 7.00725 5.00008 8.33333 5.00008ZM31.6667 35.0001H8.33333C7.00725 35.0001 5.73548 34.4733 4.7978 33.5356C3.86012 32.5979 3.33333 31.3262 3.33333 30.0001V15.0001H36.6667V30.0001C36.6667 31.3262 36.1399 32.5979 35.2022 33.5356C34.2645 34.4733 32.9927 35.0001 31.6667 35.0001ZM31.6667 21.6667C31.6667 22.1088 31.4911 22.5327 31.1785 22.8453C30.866 23.1578 30.442 23.3334 30 23.3334H10C9.55797 23.3334 9.13405 23.1578 8.82149 22.8453C8.50893 22.5327 8.33333 22.1088 8.33333 21.6667C8.33333 21.2247 8.50893 20.8008 8.82149 20.4882C9.13405 20.1757 9.55797 20.0001 10 20.0001H30C30.442 20.0001 30.866 20.1757 31.1785 20.4882C31.4911 20.8008 31.6667 21.2247 31.6667 21.6667ZM25 28.3334C25 28.7754 24.8244 29.1994 24.5118 29.5119C24.1993 29.8245 23.7754 30.0001 23.3333 30.0001H10C9.55797 30.0001 9.13405 29.8245 8.82149 29.5119C8.50893 29.1994 8.33333 28.7754 8.33333 28.3334C8.33333 27.8914 8.50893 27.4675 8.82149 27.1549C9.13405 26.8423 9.55797 26.6667 10 26.6667H23.3333C23.7754 26.6667 24.1993 26.8423 24.5118 27.1549C24.8244 27.4675 25 27.8914 25 28.3334ZM5 8.33341C5 8.00378 5.09775 7.68155 5.28088 7.40746C5.46402 7.13338 5.72432 6.91976 6.02886 6.79361C6.3334 6.66747 6.66852 6.63446 6.99182 6.69877C7.31512 6.76308 7.61209 6.92182 7.84518 7.1549C8.07827 7.38799 8.237 7.68496 8.30131 8.00826C8.36562 8.33157 8.33261 8.66668 8.20647 8.97122C8.08032 9.27576 7.8667 9.53606 7.59262 9.7192C7.31853 9.90233 6.9963 10.0001 6.66667 10.0001C6.22464 10.0001 5.80072 9.82449 5.48816 9.51192C5.17559 9.19936 5 8.77544 5 8.33341ZM10 8.33341C10 8.00378 10.0977 7.68155 10.2809 7.40746C10.464 7.13338 10.7243 6.91976 11.0289 6.79361C11.3334 6.66747 11.6685 6.63446 11.9918 6.69877C12.3151 6.76308 12.6121 6.92182 12.8452 7.1549C13.0783 7.38799 13.237 7.68496 13.3013 8.00826C13.3656 8.33157 13.3326 8.66668 13.2065 8.97122C13.0803 9.27576 12.8667 9.53606 12.5926 9.7192C12.3185 9.90233 11.9963 10.0001 11.6667 10.0001C11.2246 10.0001 10.8007 9.82449 10.4882 9.51192C10.1756 9.19936 10 8.77544 10 8.33341ZM15 8.33341C15 8.00378 15.0977 7.68155 15.2809 7.40746C15.464 7.13338 15.7243 6.91976 16.0289 6.79361C16.3334 6.66747 16.6685 6.63446 16.9918 6.69877C17.3151 6.76308 17.6121 6.92182 17.8452 7.1549C18.0783 7.38799 18.237 7.68496 18.3013 8.00826C18.3656 8.33157 18.3326 8.66668 18.2065 8.97122C18.0803 9.27576 17.8667 9.53606 17.5926 9.7192C17.3185 9.90233 16.9963 10.0001 16.6667 10.0001C16.2246 10.0001 15.8007 9.82449 15.4882 9.51192C15.1756 9.19936 15 8.77544 15 8.33341Z" fill="#05B4BA"/>
</g>
<defs>
<clipPath id="clip0_1_1254">
<rect width="40" height="40" fill="white"/>
</clipPath>
</defs>
</svg>
