<svg width="40" height="40" viewBox="0 0 40 40" fill="none" xmlns="http://www.w3.org/2000/svg">
<g id="fi-rr-bulb" clip-path="url(#clip0_1_1268)">
<path id="Vector" d="M29.9903 3.8101C27.956 1.99267 25.4646 0.764405 22.7842 0.257484C20.1038 -0.249436 17.336 -0.0158181 14.7784 0.933197C12.2209 1.88221 9.97064 3.51069 8.26973 5.64339C6.56882 7.77608 5.4817 10.3322 5.12535 13.0368C4.80531 15.4082 5.06127 17.8218 5.87155 20.0733C6.68183 22.3249 8.02258 24.3481 9.78035 25.9718C10.8674 26.925 11.7445 28.0936 12.3562 29.4036C12.9678 30.7136 13.3007 32.1364 13.3337 33.5818V33.8501C13.3354 35.4806 13.984 37.0439 15.1369 38.1969C16.2899 39.3498 17.8531 39.9983 19.4837 40.0001H20.517C22.1476 39.9983 23.7108 39.3498 24.8638 38.1969C26.0167 37.0439 26.6653 35.4806 26.667 33.8501V32.9351C26.692 31.6575 26.9926 30.4004 27.5484 29.2498C28.1041 28.0992 28.9018 27.0822 29.887 26.2684C31.4847 24.8692 32.7667 23.1464 33.6483 21.2142C34.5299 19.2821 34.9908 17.1846 35.0006 15.0609C35.0104 12.9371 34.5687 10.8355 33.705 8.89536C32.8412 6.95517 31.5751 5.22067 29.9903 3.80677V3.8101ZM20.517 36.6668H19.4837C18.7369 36.6659 18.021 36.3688 17.493 35.8408C16.9649 35.3128 16.6679 34.5969 16.667 33.8501C16.667 33.8501 16.6553 33.4168 16.6537 33.3334H23.3337V33.8501C23.3328 34.5969 23.0358 35.3128 22.5077 35.8408C21.9797 36.3688 21.2638 36.6659 20.517 36.6668ZM27.6837 23.7651C25.7861 25.411 24.4156 27.5797 23.7437 30.0001H21.667V18.0268C22.6385 17.6833 23.4802 17.048 24.0769 16.2079C24.6735 15.3678 24.9961 14.3639 25.0003 13.3334C25.0003 12.8914 24.8248 12.4675 24.5122 12.1549C24.1996 11.8424 23.7757 11.6668 23.3337 11.6668C22.8917 11.6668 22.4677 11.8424 22.1552 12.1549C21.8426 12.4675 21.667 12.8914 21.667 13.3334C21.667 13.7755 21.4914 14.1994 21.1789 14.5119C20.8663 14.8245 20.4424 15.0001 20.0003 15.0001C19.5583 15.0001 19.1344 14.8245 18.8218 14.5119C18.5093 14.1994 18.3337 13.7755 18.3337 13.3334C18.3337 12.8914 18.1581 12.4675 17.8455 12.1549C17.533 11.8424 17.109 11.6668 16.667 11.6668C16.225 11.6668 15.8011 11.8424 15.4885 12.1549C15.1759 12.4675 15.0003 12.8914 15.0003 13.3334C15.0046 14.3639 15.3272 15.3678 15.9238 16.2079C16.5205 17.048 17.3622 17.6833 18.3337 18.0268V30.0001H16.1304C15.3787 27.5155 13.9689 25.2804 12.0503 23.5318C10.4219 22.0144 9.26156 20.0629 8.70613 17.9076C8.15071 15.7522 8.22342 13.483 8.9157 11.3676C9.60797 9.25222 10.8909 7.37901 12.6131 5.96904C14.3353 4.55906 16.4249 3.67115 18.6353 3.4101C19.0936 3.35895 19.5543 3.33335 20.0153 3.33343C22.878 3.32492 25.6415 4.38114 27.7687 6.29677C29.0015 7.39609 29.9866 8.74491 30.6586 10.2538C31.3306 11.7627 31.6742 13.3972 31.6667 15.049C31.6591 16.7007 31.3005 18.332 30.6147 19.8347C29.9289 21.3374 28.9315 22.6771 27.6887 23.7651H27.6837Z" fill="#05B4BA"/>
</g>
<defs>
<clipPath id="clip0_1_1268">
<rect width="40" height="40" fill="white"/>
</clipPath>
</defs>
</svg>
