<svg width="40" height="40" viewBox="0 0 40 40" fill="none" xmlns="http://www.w3.org/2000/svg">
<g id="fi-rr-list-check" clip-path="url(#clip0_1_1278)">
<path id="Vector" d="M6.66648 10.0002C6.0094 10.0019 5.3585 9.87331 4.75144 9.62184C4.14438 9.37038 3.5932 9.00103 3.12981 8.53517L0.556477 6.24517C0.226283 5.95078 0.0265584 5.53728 0.001241 5.09563C-0.0240764 4.65398 0.127087 4.22037 0.421477 3.89017C0.715868 3.55998 1.12937 3.36025 1.57102 3.33494C2.01267 3.30962 2.44628 3.46078 2.77648 3.75517L5.41814 6.11184C5.56937 6.28167 5.75375 6.41875 5.95994 6.51465C6.16613 6.61056 6.38976 6.66326 6.61707 6.6695C6.84439 6.67575 7.07058 6.63541 7.28172 6.55097C7.49286 6.46653 7.68449 6.33977 7.84481 6.17851L13.8515 0.460173C14.1745 0.172623 14.5966 0.0218711 15.0287 0.0397577C15.4607 0.0576444 15.8689 0.242769 16.167 0.556031C16.4652 0.869293 16.6299 1.28616 16.6263 1.71859C16.6228 2.15102 16.4513 2.56515 16.1481 2.87351L10.1665 8.56351C9.7061 9.0212 9.16002 9.38367 8.55946 9.63018C7.95891 9.8767 7.31565 10.0024 6.66648 10.0002ZM39.9998 6.66684C39.9998 6.22481 39.8242 5.80089 39.5117 5.48833C39.1991 5.17577 38.7752 5.00017 38.3331 5.00017H21.6665C21.2245 5.00017 20.8005 5.17577 20.488 5.48833C20.1754 5.80089 19.9998 6.22481 19.9998 6.66684C19.9998 7.10887 20.1754 7.53279 20.488 7.84535C20.8005 8.15791 21.2245 8.33351 21.6665 8.33351H38.3331C38.7752 8.33351 39.1991 8.15791 39.5117 7.84535C39.8242 7.53279 39.9998 7.10887 39.9998 6.66684ZM10.1665 21.8968L16.1481 16.2068C16.3151 16.0582 16.4504 15.8775 16.5461 15.6755C16.6418 15.4735 16.6959 15.2543 16.7052 15.031C16.7144 14.8076 16.6786 14.5847 16.6 14.3755C16.5213 14.1662 16.4013 13.975 16.2472 13.813C16.0931 13.6511 15.9081 13.5219 15.703 13.4329C15.4979 13.344 15.277 13.2972 15.0535 13.2954C14.83 13.2936 14.6084 13.3367 14.4019 13.4223C14.1954 13.5079 14.0082 13.6341 13.8515 13.7935L7.85148 19.5118C7.5342 19.8152 7.11213 19.9845 6.67315 19.9845C6.23416 19.9845 5.81209 19.8152 5.49481 19.5118L2.84481 16.8702C2.53047 16.5666 2.10947 16.3986 1.67248 16.4024C1.23548 16.4062 0.81746 16.5815 0.508447 16.8905C0.199433 17.1995 0.0241514 17.6175 0.0203541 18.0545C0.0165567 18.4915 0.184547 18.9125 0.488144 19.2268L3.12981 21.8685C4.0626 22.8015 5.32634 23.328 6.64564 23.3333C7.96495 23.3387 9.23288 22.8223 10.1731 21.8968H10.1665ZM39.9998 20.0002C39.9998 19.5581 39.8242 19.1342 39.5117 18.8217C39.1991 18.5091 38.7752 18.3335 38.3331 18.3335H21.6665C21.2245 18.3335 20.8005 18.5091 20.488 18.8217C20.1754 19.1342 19.9998 19.5581 19.9998 20.0002C19.9998 20.4422 20.1754 20.8661 20.488 21.1787C20.8005 21.4912 21.2245 21.6668 21.6665 21.6668H38.3331C38.7752 21.6668 39.1991 21.4912 39.5117 21.1787C39.8242 20.8661 39.9998 20.4422 39.9998 20.0002ZM10.1665 35.2302L16.1415 29.5402C16.3084 29.3915 16.4438 29.2108 16.5395 29.0088C16.6352 28.8068 16.6892 28.5876 16.6985 28.3643C16.7077 28.141 16.672 27.918 16.5933 27.7088C16.5146 27.4996 16.3947 27.3083 16.2406 27.1464C16.0865 26.9845 15.9014 26.8552 15.6963 26.7663C15.4912 26.6773 15.2704 26.6306 15.0468 26.6287C14.8233 26.6269 14.6017 26.6701 14.3952 26.7556C14.1887 26.8412 14.0015 26.9675 13.8448 27.1268L7.84481 32.8452C7.68449 33.0064 7.49286 33.1332 7.28172 33.2176C7.07058 33.3021 6.84439 33.3424 6.61707 33.3362C6.38976 33.3299 6.16613 33.2772 5.95994 33.1813C5.75375 33.0854 5.56937 32.9483 5.41814 32.7785L2.77648 30.4218C2.44628 30.1275 2.01267 29.9763 1.57102 30.0016C1.12937 30.0269 0.715868 30.2266 0.421477 30.5568C0.127087 30.887 -0.0240764 31.3207 0.001241 31.7623C0.0265584 32.204 0.226283 32.6175 0.556477 32.9118L3.12981 35.2018C4.0626 36.1348 5.32634 36.6614 6.64564 36.6667C7.96495 36.672 9.23288 36.1556 10.1731 35.2302H10.1665ZM39.9998 33.3335C39.9998 32.8915 39.8242 32.4676 39.5117 32.155C39.1991 31.8424 38.7752 31.6668 38.3331 31.6668H21.6665C21.2245 31.6668 20.8005 31.8424 20.488 32.155C20.1754 32.4676 19.9998 32.8915 19.9998 33.3335C19.9998 33.7755 20.1754 34.1995 20.488 34.512C20.8005 34.8246 21.2245 35.0002 21.6665 35.0002H38.3331C38.7752 35.0002 39.1991 34.8246 39.5117 34.512C39.8242 34.1995 39.9998 33.7755 39.9998 33.3335Z" fill="#05B4BA"/>
</g>
<defs>
<clipPath id="clip0_1_1278">
<rect width="40" height="40" fill="white"/>
</clipPath>
</defs>
</svg>
