<svg width="40" height="40" viewBox="0 0 40 40" fill="none" xmlns="http://www.w3.org/2000/svg">
<g id="fi-rr-dashboard" clip-path="url(#clip0_1_1264)">
<path id="Vector" d="M39.8331 19.062C39.1783 14.021 36.6285 9.41857 32.7021 6.19008C28.7756 2.96159 23.7671 1.34936 18.6946 1.68109C13.6221 2.01282 8.8663 4.26361 5.39375 7.97597C1.92121 11.6883 -0.0074389 16.5837 -0.000181752 21.667C-0.00978909 24.3879 0.541582 27.0815 1.61951 29.5797C2.69744 32.078 4.27878 34.3272 6.26482 36.187C7.78372 37.5933 9.78508 38.3618 11.8548 38.3337H28.1332C30.3198 38.3388 32.4206 37.4833 33.9815 35.952C36.206 33.7878 37.8936 31.1333 38.9097 28.2007C39.9257 25.2681 40.2419 22.1386 39.8331 19.062ZM31.6515 33.562C30.7138 34.4859 29.4495 35.0027 28.1332 35.0003H11.8548C10.6369 35.0254 9.45564 34.5835 8.55315 33.7653C6.89861 32.2155 5.58119 30.3414 4.68308 28.2599C3.78497 26.1783 3.32543 23.934 3.33315 21.667C3.33479 19.3207 3.83111 17.0012 4.78971 14.8597C5.74832 12.7182 7.14768 10.8029 8.89648 9.23868C11.9351 6.49852 15.8849 4.98763 19.9765 5.00034C20.6302 5.00062 21.2835 5.03734 21.9332 5.11034C25.0592 5.4734 28.0184 6.71461 30.468 8.69022C32.9177 10.6658 34.7576 13.295 35.7745 16.2732C36.7915 19.2513 36.944 22.4567 36.2143 25.518C35.4846 28.5792 33.9026 31.3711 31.6515 33.5703V33.562ZM13.0115 28.8087C13.3275 29.1181 13.5077 29.5404 13.5124 29.9827C13.5171 30.4249 13.3459 30.851 13.0365 31.167C12.7271 31.4831 12.3048 31.6632 11.8625 31.6679C11.4202 31.6726 10.9942 31.5014 10.6782 31.192C8.78642 29.339 7.48931 26.9646 6.95217 24.3716C6.41502 21.7785 6.66218 19.0842 7.66213 16.6322C8.66207 14.1802 10.3695 12.0814 12.5668 10.6035C14.7641 9.12554 17.3517 8.33537 19.9998 8.33368C20.6372 8.33349 21.2738 8.37861 21.9048 8.46868C22.1215 8.49992 22.33 8.57355 22.5182 8.68537C22.7064 8.79719 22.8708 8.945 23.0019 9.12037C23.133 9.29573 23.2282 9.4952 23.2822 9.70739C23.3362 9.91958 23.3478 10.1403 23.3165 10.357C23.2878 10.5749 23.2158 10.7848 23.1048 10.9745C22.9937 11.1641 22.8459 11.3297 22.67 11.4614C22.494 11.593 22.2935 11.6882 22.0803 11.7413C21.867 11.7943 21.6453 11.8042 21.4282 11.7703C19.3423 11.4724 17.2156 11.8409 15.3516 12.8233C13.4877 13.8058 11.9816 15.3518 11.0484 17.2409C10.1152 19.13 9.80259 21.2656 10.1551 23.343C10.5076 25.4203 11.5073 27.3332 13.0115 28.8087ZM33.1982 19.762C33.2882 20.393 33.3333 21.0296 33.3332 21.667C33.3386 23.4431 32.9859 25.2021 32.2964 26.8389C31.6069 28.4758 30.5945 29.9568 29.3198 31.1937C29.0033 31.5031 28.5769 31.6741 28.1343 31.6691C27.6917 31.6641 27.2692 31.4835 26.9598 31.167C26.6504 30.8505 26.4794 30.4241 26.4844 29.9815C26.4894 29.5389 26.67 29.1164 26.9865 28.807C28.1126 27.7094 28.963 26.3609 29.4682 24.8717C29.9733 23.3825 30.119 21.7949 29.8932 20.2387C29.8299 19.8008 29.9432 19.3558 30.2081 19.0016C30.473 18.6473 30.8678 18.4127 31.3057 18.3495C31.7435 18.2863 32.1885 18.3996 32.5428 18.6645C32.8971 18.9294 33.1316 19.3242 33.1948 19.762H33.1982ZM23.2098 20.8137C23.4104 21.5349 23.3664 22.3023 23.0849 22.996C22.8033 23.6896 22.2999 24.2705 21.6533 24.6478C21.0068 25.0252 20.2535 25.1778 19.511 25.0819C18.7686 24.9859 18.0788 24.6467 17.5494 24.1174C17.0201 23.588 16.6809 22.8983 16.585 22.1558C16.489 21.4134 16.6416 20.66 17.019 20.0135C17.3964 19.3669 17.9772 18.8636 18.6709 18.582C19.3645 18.3004 20.1319 18.2564 20.8532 18.457L27.1548 12.1553C27.3086 11.9962 27.4925 11.8692 27.6958 11.7818C27.8992 11.6945 28.1179 11.6485 28.3391 11.6466C28.5604 11.6447 28.7799 11.6868 28.9847 11.7706C29.1896 11.8544 29.3757 11.9782 29.5321 12.1347C29.6886 12.2912 29.8124 12.4773 29.8962 12.6821C29.98 12.8869 30.0222 13.1064 30.0202 13.3277C30.0183 13.549 29.9723 13.7677 29.885 13.971C29.7976 14.1744 29.6707 14.3583 29.5115 14.512L23.2098 20.8137Z" fill="#05B4BA"/>
</g>
<defs>
<clipPath id="clip0_1_1264">
<rect width="40" height="40" fill="white"/>
</clipPath>
</defs>
</svg>
