<svg width="40" height="40" viewBox="0 0 40 40" fill="none" xmlns="http://www.w3.org/2000/svg">
<g id="fi-rr-smartphone" clip-path="url(#clip0_1_1258)">
<path id="Vector" d="M25.0001 0H15.0001C12.7908 0.00264643 10.6727 0.88147 9.11048 2.4437C7.54825 4.00593 6.66942 6.12401 6.66678 8.33333V31.6667C6.66942 33.876 7.54825 35.9941 9.11048 37.5563C10.6727 39.1185 12.7908 39.9974 15.0001 40H25.0001C27.2094 39.9974 29.3275 39.1185 30.8897 37.5563C32.452 35.9941 33.3308 33.876 33.3334 31.6667V8.33333C33.3308 6.12401 32.452 4.00593 30.8897 2.4437C29.3275 0.88147 27.2094 0.00264643 25.0001 0V0ZM15.0001 3.33333H25.0001C26.3262 3.33333 27.598 3.86012 28.5356 4.7978C29.4733 5.73548 30.0001 7.00725 30.0001 8.33333V26.6667H10.0001V8.33333C10.0001 7.00725 10.5269 5.73548 11.4646 4.7978C12.4023 3.86012 13.674 3.33333 15.0001 3.33333ZM25.0001 36.6667H15.0001C13.674 36.6667 12.4023 36.1399 11.4646 35.2022C10.5269 34.2645 10.0001 32.9927 10.0001 31.6667V30H30.0001V31.6667C30.0001 32.9927 29.4733 34.2645 28.5356 35.2022C27.598 36.1399 26.3262 36.6667 25.0001 36.6667Z" fill="#05B4BA"/>
<path id="Vector_2" d="M20.0003 34.999C20.9207 34.999 21.6669 34.2528 21.6669 33.3323C21.6669 32.4118 20.9207 31.6656 20.0003 31.6656C19.0798 31.6656 18.3336 32.4118 18.3336 33.3323C18.3336 34.2528 19.0798 34.999 20.0003 34.999Z" fill="#05B4BA"/>
</g>
<defs>
<clipPath id="clip0_1_1258">
<rect width="40" height="40" fill="white"/>
</clipPath>
</defs>
</svg>
